<svg width="64" height="64" viewBox="0 0 64 64" fill="none" xmlns="http://www.w3.org/2000/svg">
  <path d="M41.5 18.5c-4.7-4.7-11.7-6.7-18-4.9-8.2 2.4-13.9 10.2-13.9 18.4s5.7 16 13.9 18.4c6.3 1.8 13.3-.2 18-4.9" stroke="#000" stroke-width="8" stroke-linecap="round" stroke-linejoin="round"/>
  <circle cx="50" cy="18" r="2.2" fill="#000"/>
  <circle cx="56" cy="18" r="2.2" fill="#000"/>
  <circle cx="62" cy="18" r="2.2" fill="#000"/>
  <circle cx="50" cy="26" r="2.2" fill="#000"/>
  <circle cx="56" cy="26" r="2.2" fill="#000"/>
  <circle cx="62" cy="26" r="2.2" fill="#000"/>
  <circle cx="50" cy="34" r="2.2" fill="#000"/>
  <circle cx="56" cy="34" r="2.2" fill="#000"/>
  <circle cx="62" cy="34" r="2.2" fill="#000"/>
  <circle cx="50" cy="42" r="2.2" fill="#000"/>
  <circle cx="56" cy="42" r="2.2" fill="#000"/>
  <circle cx="62" cy="42" r="2.2" fill="#000"/>
</svg>
